HIERARCHY
ROOT Hips
{
    OFFSET 0 0 0
    CHANNELS 6 Xposition Yposition Zposition Zrotation Yrotation Xrotation
    JOINT Chest
    {
        OFFSET 1.261052E-14 2.2 9.616505E-08
        CHANNELS 3 Zrotation Yrotation Xrotation
        JOINT Chest2
        {
            OFFSET 0 2.866667 0
            CHANNELS 3 Zrotation Yrotation Xrotation
            JOINT Neck
            {
                OFFSET 0 1.433333 0
                CHANNELS 3 Zrotation Yrotation Xrotation
                JOINT Head
                {
                    OFFSET -5.955877E-09 1.099063 -0.0454182
                    CHANNELS 3 Zrotation Yrotation Xrotation
                    End Site
                    {
                        OFFSET 1.742161E-07 0.215971 1.988305
                    }
                }
            }
            JOINT LeftCollar
            {
                OFFSET 0.6 0.333333 -7.86805E-08
                CHANNELS 3 Zrotation Yrotation Xrotation
                JOINT LeftShoulder
                {
                    OFFSET 1.399785 0.02316189 0.008118234
                    CHANNELS 3 Zrotation Yrotation Xrotation
                    JOINT LeftElbow
                    {
                        OFFSET 2.28797 0.1912422 -0.1364633
                        CHANNELS 3 Zrotation Yrotation Xrotation
                        JOINT LeftWrist
                        {
                            OFFSET 2.775776 0.232193 0.2848766
                            CHANNELS 3 Zrotation Yrotation Xrotation
                            End Site
                            {
                                OFFSET 0.9913487 0.0829258 0.1017416
                            }
                        }
                    }
                }
            }
            JOINT RightCollar
            {
                OFFSET -0.6 0.333333 7.86805E-08
                CHANNELS 3 Zrotation Yrotation Xrotation
                JOINT RightShoulder
                {
                    OFFSET -1.399785 0.02316189 0.008118574
                    CHANNELS 3 Zrotation Yrotation Xrotation
                    JOINT RightElbow
                    {
                        OFFSET -2.28797 0.1912422 -0.136463
                        CHANNELS 3 Zrotation Yrotation Xrotation
                        JOINT RightWrist
                        {
                            OFFSET -2.775776 0.232193 0.2848771
                            CHANNELS 3 Zrotation Yrotation Xrotation
                            End Site
                            {
                                OFFSET -0.9913487 0.0829258 0.1017418
                            }
                        }
                    }
                }
            }
        }
    }
    JOINT LeftHip
    {
        OFFSET 0.9032136 0.1000166 0.0003561888
        CHANNELS 3 Zrotation Yrotation Xrotation
        JOINT LeftKnee
        {
            OFFSET 0.09757304 -3.66482 0.4995777
            CHANNELS 3 Zrotation Yrotation Xrotation
            JOINT LeftAnkle
            {
                OFFSET 0.1137198 -4.272043 -0.4761516
                CHANNELS 3 Zrotation Yrotation Xrotation
                End Site
                {
                    OFFSET -1 0 8.754432E-08
                }
            }
        }
    }
    JOINT RightHip
    {
        OFFSET -0.9032136 0.1000166 0.0003564245
        CHANNELS 3 Zrotation Yrotation Xrotation
        JOINT RightKnee
        {
            OFFSET -0.09757292 -3.66482 0.4995777
            CHANNELS 3 Zrotation Yrotation Xrotation
            JOINT RightAnkle
            {
                OFFSET -0.1137199 -4.272043 -0.4761516
                CHANNELS 3 Zrotation Yrotation Xrotation
                End Site
                {
                    OFFSET -1 0 8.754432E-08
                }
            }
        }
    }
}
MOTION
Frames:    8
Frame Time:    0.016667
0.9559993    8.613614    27.48532    0.4023696    -32.6045    3.310516    6.162584    -9.20381    1.820812    4.404325    0.4507972    4.718985    0.003121973    -1.290852    1.993198    0.1070788    -2.589303    9.724149    8.786073    -6.018284    -0.03805691    54.84214    -30.3013    -86.86475    -0.004710519    -2.823759    0.2362561    2.895567E-08    5.641253E-07    8.944249E-08    9.952454    2.514182    -0.08572916    64.30735    -4.211323    2.879499    1.40175    39.51015    3.94679    6.558675E-08    -1.37009E-07    6.061228E-07    2.833393    -0.4994763    -8.780436    0.06485305    0.4411258    16.80881    -3.355536    -6.192183    -7.545307    -17.54844    -39.25594    14.72857    -1.271488E-05    -0.007337555    0.275604    17.61611    1.548449    -2.175481
0.9529613    8.614044    27.48329    0.3654897    -32.86165    3.335138    6.270535    -10.06271    1.867521    4.419341    0.5755034    4.832087    0.002495442    -1.276296    1.929394    0.07379489    -1.785137    9.385189    8.847322    -6.435772    -0.05491627    56.91581    -31.88276    -88.85278    -0.005067478    -2.915903    0.2439796    1.024283E-07    -2.396422E-07    -2.733901E-07    9.989981    2.258868    -0.1115603    64.40692    -5.173861    3.156058    1.450029    40.04586    4.022579    2.733089E-07    6.716324E-07    -6.580591E-07    2.853875    -0.3776604    -8.702638    0.06474701    0.4407742    16.795    -3.355968    -6.163771    -7.652061    -17.58883    -39.5143    14.68455    -8.96453E-06    -0.006158769    0.2313914    17.73937    0.7195929    -2.105325
0.9496906    8.614174    27.48149    0.3303374    -33.09788    3.350202    6.37575    -10.89507    1.921091    4.435287    0.6959164    4.942292    0.001564739    -1.26054    1.877188    0.04123907    -0.9979687    9.106831    8.885219    -6.835583    -0.07120594    59.05594    -33.45322    -90.98302    -0.00554753    -3.037646    0.2541818    1.403332E-06    -2.654243E-07    5.526495E-07    10.02449    1.987435    -0.1371002    64.39864    -6.216489    3.404922    1.493862    40.51997    4.090656    -1.035322E-07    -9.244708E-07    -1.492493E-08    2.875293    -0.288413    -8.626467    0.0647385    0.4407436    16.79395    -3.360165    -6.119142    -7.762212    -17.63482    -39.75982    14.65808    -6.189332E-06    -0.005128585    0.1926332    17.84254    0.02122881    -2.043791
0.9462551    8.613812    27.47986    0.2971457    -33.31245    3.358791    6.478765    -11.69406    1.978002    4.452747    0.8108538    5.049034    0.0003755243    -1.243672    1.837973    0.0096984    -0.234802    8.896534    8.907976    -7.214296    -0.0867376    61.26095    -34.97614    -93.24577    -0.006052141    -3.160322    0.2644688    -6.387824E-07    5.811945E-07    7.88463E-07    10.05527    1.703854    -0.1620076    64.2856    -7.314079    3.624559    1.531271    40.91583    4.148242    -2.749414E-08    -4.555643E-08    1.387435E-07    2.897623    -0.2338368    -8.561213    0.06490423    0.4412918    16.81549    -3.368033    -6.057171    -7.879675    -17.68117    -39.98809    14.64201    -1.800189E-06    -0.004294498    0.1613273    17.92293    -0.5173051    -1.991117
0.9426573    8.612782    27.47836    0.2659859    -33.50467    3.361107    6.579675    -12.45306    2.037901    4.472205    0.9191819    5.15182    -0.0008943543    -1.225868    1.813036    -0.02055424    0.4972178    8.761709    8.924    -7.567169    -0.1015369    63.51516    -36.40449    -95.61256    -0.006483917    -3.260133    0.2728373    4.133649E-07    -1.061875E-06    -6.885618E-07    10.08178    1.412052    -0.1860484    64.07343    -8.442918    3.814504    1.5604    41.21864    4.192765    2.973758E-07    -8.00175E-07    1.464215E-06    2.92101    -0.2155987    -8.512062    0.06531303    0.4426484    16.86856    -3.379517    -5.977221    -8.008533    -17.7267    -40.19407    14.63469    -2.119773E-06    -0.003714727    0.1395131    17.97941    -0.8657733    -1.948074
0.9389006    8.611106    27.47701    0.2370707    -33.67368    3.357122    6.678591    -13.16567    2.100394    4.49436    1.019758    5.250003    -0.002196534    -1.206354    1.798645    -0.04943707    1.196167    8.682616    8.941138    -7.888505    -0.1155961    65.78698    -37.68447    -98.03197    -0.006738434    -3.317956    0.2776887    7.848136E-07    -8.11073E-08    1.103142E-07    10.10373    1.115655    -0.2088903    63.77008    -9.577127    3.975324    1.578853    41.40815    4.220833    -3.933875E-07    3.98988E-07    -1.958006E-06    2.945163    -0.2512442    -8.478241    0.06595607    0.4447692    16.95187    -3.397014    -5.862625    -8.149417    -17.77009    -40.37283    14.63549    -1.079943E-06    -0.003384061    0.1271414    18.01054    -0.994428    -1.914597
0.934989    8.608807    27.47581    0.2105236    -33.81882    3.346944    6.775678    -13.82519    2.165096    4.519981    1.111423    5.342792    -0.003484712    -1.184059    1.789594    -0.0769609    1.861735    8.631935    8.967451    -8.171476    -0.1290441    68.02591    -38.75841    -100.4251    -0.006751277    -3.322235    0.2780447    -2.566707E-07    3.468354E-07    2.862812E-07    10.12108    0.8182877    -0.2302661    63.38572    -10.69357    4.106294    1.584669    41.46743    4.229652    1.384859E-08    -5.162995E-07    -3.227154E-07    2.969732    -0.3552472    -8.458975    0.06682679    0.4476254    17.06393    -3.422604    -5.699506    -8.302709    -17.80968    -40.51917    14.64383    5.116847E-08    -0.003289722    0.1235684    18.0147    -0.8737306    -1.890612
0.9309266    8.605902    27.47474    0.1865462    -33.93921    3.330562    6.871173    -14.42525    2.231529    4.549606    1.193064    5.429732    -0.004664842    -1.15878    1.785261    -0.1029323    2.489308    8.606757    9.01087    -8.408536    -0.1421295    70.16295    -39.5685    -102.6858    -0.006519258    -3.267743    0.2734736    1.908819E-06    -1.80197E-07    1.237634E-07    10.13386    0.523157    -0.2499718    62.93258    -11.77264    4.206562    1.57662    41.38526    4.217437    -6.19129E-07    6.939895E-07    -1.326271E-06    2.993674    -0.5243269    -8.455171    0.06792696    0.4511991    17.20456    -3.455335    -5.491712    -8.467275    -17.84404    -40.6283    14.65876    -2.105496E-06    -0.003439833    0.1291911    18.00652    -0.6440263    -1.883558
